<?xml version="1.0" encoding="UTF-8" standalone="no"?>
<!-- Created with Inkscape (http://www.inkscape.org/) -->

<svg
   width="48"
   height="48"
   viewBox="0 0 48 48"
   version="1.1"
   id="svg5"
   inkscape:version="1.1.2 (0a00cf5339, 2022-02-04, custom)"
   sodipodi:docname="pluginIcon.svg"
   xmlns:inkscape="http://www.inkscape.org/namespaces/inkscape"
   xmlns:sodipodi="http://sodipodi.sourceforge.net/DTD/sodipodi-0.dtd"
   xmlns="http://www.w3.org/2000/svg"
   xmlns:svg="http://www.w3.org/2000/svg">
  <sodipodi:namedview
     id="namedview7"
     pagecolor="#ffffff"
     bordercolor="#666666"
     borderopacity="1.0"
     inkscape:pageshadow="2"
     inkscape:pageopacity="0.0"
     inkscape:pagecheckerboard="0"
     inkscape:document-units="px"
     showgrid="false"
     inkscape:zoom="36.375"
     inkscape:cx="44.19244"
     inkscape:cy="21.209622"
     inkscape:window-width="3840"
     inkscape:window-height="2036"
     inkscape:window-x="-12"
     inkscape:window-y="-12"
     inkscape:window-maximized="1"
     inkscape:current-layer="layer2" />
  <defs
     id="defs2" />
  <g
     inkscape:label="Layer 1"
     inkscape:groupmode="layer"
     id="layer1">
    <g
       id="g109"
       transform="matrix(0.09442556,0,0,0.09442556,2.0989044,1.8798712)">
      <g
         id="g54">
        <g
           id="g52">
          <path
             d="m 472.614,264.846 v -57.072 l -51.8,-8.824 C 415.935,174.717 406.376,152.197 393.16,132.305 L 423.58,89.394 383.222,49.036 340.311,79.457 C 320.419,66.24 297.901,56.679 273.667,51.8 L 264.843,0 h -57.074 l -8.82,51.8 c -24.234,4.88 -46.754,14.44 -66.647,27.657 L 89.39,49.036 49.034,89.394 79.455,132.305 C 66.239,152.197 56.679,174.716 51.798,198.95 l -51.797,8.824 v 57.072 l 51.797,8.822 c 4.881,24.233 14.441,46.755 27.657,66.644 l -30.421,42.913 40.356,40.356 42.914,-30.421 c 19.889,13.216 42.409,22.776 66.644,27.656 l 8.82,51.799 h 57.074 l 8.824,-51.799 c 24.234,-4.88 46.752,-14.439 66.644,-27.656 l 42.911,30.421 40.358,-40.356 -30.42,-42.913 c 13.215,-19.889 22.775,-42.41 27.654,-66.644 z M 236.308,333.1 c -53.458,0 -96.794,-43.334 -96.794,-96.793 0,-53.457 43.336,-96.792 96.794,-96.792 53.457,0 96.793,43.335 96.793,96.792 -10e-4,53.459 -43.337,96.793 -96.793,96.793 z"
             id="path50" />
        </g>
      </g>
      <g
         id="g56" />
      <g
         id="g58" />
      <g
         id="g60" />
      <g
         id="g62" />
      <g
         id="g64" />
      <g
         id="g66" />
      <g
         id="g68" />
      <g
         id="g70" />
      <g
         id="g72" />
      <g
         id="g74" />
      <g
         id="g76" />
      <g
         id="g78" />
      <g
         id="g80" />
      <g
         id="g82" />
      <g
         id="g84" />
    </g>
    <path
       style="fill:#a0a0a0;stroke:none;stroke-width:0.0274914"
       d="m 21.720453,46.426117 c -0.02544,-0.121149 -0.813236,-4.761092 -0.813236,-4.789765 0,-0.02803 -0.01422,-0.03201 -0.591066,-0.165333 -1.869076,-0.431984 -3.827411,-1.263753 -5.468998,-2.32286 -0.218053,-0.140681 -0.252006,-0.154575 -0.302406,-0.123747 -0.03123,0.0191 -0.937516,0.65875 -2.013979,1.421444 -1.076463,0.762697 -1.965577,1.387216 -1.97581,1.387824 -0.01023,6.05e-4 -0.8690724,-0.849031 -1.9085327,-1.888085 L 6.7564976,38.056404 8.1715648,36.060594 C 8.9498518,34.9629 9.5925581,34.049342 9.5998007,34.030469 9.6070436,34.011593 9.5766834,33.942895 9.532334,33.877801 9.3594928,33.624118 8.9699692,32.962873 8.7323381,32.519747 8.0324932,31.2147 7.4596022,29.698353 7.1337916,28.28866 6.9998194,27.708998 6.9965853,27.697595 6.9661633,27.697595 c -0.030009,0 -4.6588118,-0.78632 -4.7874691,-0.813273 l -0.075601,-0.01584 V 24.19244 21.516396 l 0.075601,-0.01542 c 0.041581,-0.0085 1.1394969,-0.196177 2.4398138,-0.417102 1.300317,-0.220925 2.3722549,-0.414696 2.3820844,-0.4306 0.00983,-0.01591 0.032217,-0.10445 0.049751,-0.196766 0.064705,-0.340689 0.3065419,-1.233912 0.4705696,-1.738046 0.4675764,-1.437081 1.1381028,-2.85493 1.9323,-4.085909 0.085269,-0.132165 0.1549146,-0.24969 0.1547678,-0.261169 C 9.607834,14.359904 8.9660729,13.447422 8.181845,12.343642 L 6.7559761,10.33677 8.6535791,8.4356753 10.551182,6.5345809 10.732636,6.6657765 c 0.533887,0.386014 3.813115,2.7031214 3.840273,2.7135431 0.01757,0.00674 0.228323,-0.1105735 0.468347,-0.2606986 1.450277,-0.9070883 3.061156,-1.6118845 4.715704,-2.063228 0.433544,-0.1182664 1.004594,-0.2512693 1.078828,-0.2512693 0.02511,0 0.05128,-0.015464 0.05813,-0.034364 0.0069,-0.0189 0.192164,-1.0920963 0.411787,-2.3848798 0.219623,-1.2927835 0.406358,-2.3845361 0.414967,-2.4261168 l 0.01565,-0.075601 h 2.676044 2.676044 l 0.01566,0.075601 c 0.0086,0.041581 0.196511,1.1395189 0.417548,2.4398625 0.221036,1.3003437 0.406146,2.3688385 0.411355,2.3744333 0.0052,0.00559 0.16778,0.04573 0.361269,0.08919 1.970525,0.4426035 3.92669,1.2556325 5.624989,2.3378821 0.165278,0.1053256 0.315268,0.1858375 0.333308,0.1789149 0.01804,-0.00692 0.458801,-0.3144995 0.979472,-0.6835043 0.520671,-0.3690051 1.412534,-1.0012009 1.981916,-1.4048792 0.569386,-0.4036786 1.045708,-0.733961 1.058497,-0.733961 0.01279,0 0.872195,0.8505155 1.909792,1.8900344 l 1.886543,1.8900342 -1.425869,2.006873 c -0.784229,1.10378 -1.425988,2.016264 -1.426136,2.027742 -2.75e-4,0.01148 0.0695,0.129004 0.154768,0.261169 0.792605,1.228511 1.46566,2.651709 1.9323,4.085909 0.164027,0.504134 0.405863,1.397357 0.47057,1.738046 0.01753,0.09232 0.0399,0.180632 0.0497,0.196256 0.0098,0.01563 1.08174,0.209318 2.382084,0.43043 1.300343,0.221112 2.398281,0.409038 2.439862,0.417612 l 0.0756,0.01559 v 2.675248 2.675248 l -0.06186,0.01476 c -0.03402,0.0081 -1.131959,0.196682 -2.439863,0.41903 -1.307903,0.222348 -2.386026,0.416773 -2.395829,0.432055 -0.0098,0.01528 -0.03217,0.103316 -0.0497,0.195633 -0.06471,0.340689 -0.306543,1.233911 -0.47057,1.738046 -0.469015,1.441501 -1.136317,2.852156 -1.934205,4.088863 -0.08632,0.133787 -0.151219,0.258158 -0.144228,0.276376 0.007,0.01822 0.651843,0.934557 1.433003,2.036303 l 1.420289,2.003175 -1.895673,1.89343 -1.895676,1.893432 -2.002479,-1.420357 c -1.101367,-0.781196 -2.0174,-1.426082 -2.035629,-1.433078 -0.01823,-0.007 -0.08641,0.02356 -0.1515,0.06792 -0.253682,0.172842 -0.914928,0.562365 -1.358054,0.799995 -1.446763,0.77584 -3.021424,1.345924 -4.760297,1.723395 -0.03402,0.0074 -0.06186,0.02563 -0.06186,0.04055 0,0.02858 -0.786492,4.65953 -0.813452,4.789694 l -0.01566,0.0756 H 24.412371 21.736327 Z M 25.731959,33.25247 c 1.035853,-0.160008 1.845369,-0.415299 2.762886,-0.87131 1.775888,-0.882625 3.188787,-2.285234 4.080987,-4.051263 0.470079,-0.930481 0.75056,-1.828995 0.913955,-2.927835 0.07062,-0.474903 0.07062,-1.944341 0,-2.419244 -0.165331,-1.111856 -0.448726,-2.011996 -0.933463,-2.964934 -0.860049,-1.690757 -2.278642,-3.109348 -3.969397,-3.969397 -0.961921,-0.489307 -1.882501,-0.777333 -2.986689,-0.93446 -0.478667,-0.06811 -1.897067,-0.06811 -2.375734,0 -1.105841,0.157362 -2.024604,0.445062 -2.990693,0.936503 -0.954326,0.485457 -1.801639,1.133268 -2.576804,1.970089 -1.086482,1.1729 -1.884029,2.726897 -2.204043,4.294519 -0.149552,0.732598 -0.167402,0.935343 -0.166491,1.891048 7.53e-4,0.789622 0.0081,0.939803 0.06306,1.292096 0.159132,1.019622 0.392103,1.777659 0.819212,2.665535 1.292912,2.687713 3.825599,4.586987 6.74534,5.05836 0.59002,0.09525 0.78748,0.107231 1.621993,0.09837 0.662907,-0.007 0.881277,-0.01947 1.195877,-0.06807 z"
       id="path8225" />
    <path
       style="fill:#cccccc;stroke-width:0.0274914"
       d="m 21.74575,46.467491 c -0.01147,-0.03275 -0.40652,-2.346083 -0.688982,-4.034501 -0.07209,-0.430928 -0.144511,-0.798285 -0.160932,-0.816347 -0.01642,-0.01806 -0.242177,-0.08319 -0.50168,-0.144725 -2.028615,-0.481034 -3.597634,-1.146271 -5.602161,-2.37522 -0.08983,-0.05507 -0.179706,-0.100134 -0.199719,-0.100134 -0.02001,0 -0.769195,0.517371 -1.664848,1.149715 -2.446006,1.72692 -2.348671,1.660948 -2.404646,1.629803 -0.0267,-0.01486 -0.8796378,-0.859733 -1.8954055,-1.877495 L 6.7805262,38.04811 7.8240212,36.57732 c 1.5085547,-2.126285 1.7842262,-2.522304 1.7842262,-2.563145 0,-0.02007 -0.094537,-0.190752 -0.2100822,-0.379288 C 8.2914144,31.829001 7.5722441,30.10168 7.120756,28.164948 7.0661215,27.930584 7.0065493,27.725374 6.9883733,27.708927 6.9701977,27.692479 6.0893471,27.532721 5.0309278,27.353908 3.9725086,27.175096 2.8838488,26.990615 2.6116838,26.943951 L 2.1168385,26.859111 V 24.19267 21.52623 l 1.718213,-0.29384 c 1.9386161,-0.331532 2.9354079,-0.508399 3.0837636,-0.547173 l 0.1009457,-0.02638 0.06023,-0.26756 C 7.5279927,18.401125 8.2945269,16.530272 9.3796059,14.77869 9.5053585,14.575695 9.608247,14.392308 9.608247,14.371165 c 0,-0.03681 -0.5005355,-0.75305 -2.0989196,-3.003461 L 6.777098,10.33677 8.6654834,8.448077 10.553869,6.5593839 l 0.129506,0.093041 c 0.282061,0.2026413 2.337649,1.6571629 3.08181,2.180671 0.434082,0.3053713 0.805842,0.5552207 0.826132,0.5552207 0.02029,0 0.221832,-0.1126354 0.447873,-0.2503005 1.419219,-0.8643472 2.740177,-1.4658035 4.218542,-1.920778 0.367543,-0.1131134 1.188653,-0.3254772 1.489134,-0.3851349 l 0.1558,-0.030933 0.04534,-0.252819 c 0.02494,-0.1390501 0.214659,-1.2425094 0.421606,-2.4521314 l 0.376266,-2.1993127 h 2.666579 2.66658 l 0.279727,1.6357388 c 0.49405,2.8890288 0.539122,3.1467657 0.560508,3.2051976 0.01724,0.047106 0.07952,0.070938 0.346406,0.1325616 1.926975,0.4449314 3.663426,1.1478233 5.358214,2.1689317 0.31857,0.1919387 0.595541,0.3489793 0.615486,0.3489793 0.03938,0 0.175417,-0.094246 1.925569,-1.3340119 0.642612,-0.4552104 1.375742,-0.9731365 1.629177,-1.150947 l 0.460795,-0.3232919 0.102779,0.082775 c 0.05653,0.045526 0.910023,0.8908451 1.896654,1.8784869 l 1.79387,1.7957118 -1.102175,1.55313 c -1.530051,2.156074 -1.729553,2.442939 -1.729553,2.486924 0,0.02118 0.103065,0.203251 0.229036,0.404594 1.064902,1.702076 1.851758,3.621834 2.29922,5.609584 l 0.06023,0.26756 0.1022,0.02752 c 0.05621,0.01514 0.151117,0.03248 0.210911,0.03854 0.05979,0.0061 0.130362,0.01996 0.156822,0.03089 0.02646,0.01093 0.06587,0.01305 0.08757,0.0047 0.0217,-0.0083 0.04335,-0.0054 0.04811,0.0064 0.0081,0.02032 0.689578,0.141913 3.225144,0.575499 l 1.072165,0.183342 v 2.666584 2.666583 l -1.786942,0.307168 c -2.11462,0.363495 -2.877811,0.498657 -3.015035,0.533967 l -0.100946,0.02597 -0.06023,0.26756 c -0.44769,1.988761 -1.215294,3.862229 -2.299616,5.612588 -0.125751,0.202993 -0.22864,0.386254 -0.22864,0.407246 0,0.02099 0.08441,0.157996 0.187579,0.304457 0.103167,0.14646 0.741993,1.050133 1.419615,2.008162 l 1.232039,1.741872 -1.884135,1.884135 -1.884137,1.884137 -0.270876,-0.191104 c -0.148981,-0.105107 -0.86469,-0.61189 -1.590463,-1.126182 -1.959329,-1.38841 -2.152245,-1.522356 -2.192542,-1.522356 -0.02028,0 -0.159994,0.07595 -0.310479,0.16878 -1.39911,0.863063 -2.633095,1.443591 -4.040077,1.900663 -0.472666,0.153548 -1.335304,0.390895 -1.723624,0.474238 -0.116456,0.02499 -0.222605,0.0598 -0.235886,0.07734 -0.01328,0.01754 -0.170592,0.897878 -0.349579,1.956297 -0.178987,1.058419 -0.363559,2.147079 -0.410161,2.419244 l -0.08473,0.494846 -2.660604,0.007 c -2.114413,0.0056 -2.663084,0 -2.672684,-0.02749 z m 3.595943,-13.15727 c 0.07264,-8.52e-4 0.326247,-0.0341 0.563574,-0.07392 3.705587,-0.621658 6.633919,-3.392926 7.450343,-7.050738 0.174009,-0.779613 0.183343,-0.882375 0.182268,-2.006873 -0.0011,-1.160163 -0.0177,-1.316496 -0.232256,-2.188163 -0.652338,-2.650312 -2.456462,-4.873618 -4.906997,-6.04712 -0.837803,-0.401204 -1.566122,-0.632742 -2.501718,-0.795313 -0.755675,-0.131308 -2.213397,-0.131308 -2.969072,0 -2.111975,0.366981 -3.919966,1.355852 -5.327339,2.913758 -1.169372,1.294448 -1.921264,2.858854 -2.238852,4.658209 -0.0733,0.415304 -0.0755,0.457584 -0.07596,1.458629 -3.93e-4,0.869459 0.0074,1.078292 0.04958,1.333333 0.176128,1.064365 0.468205,1.973597 0.914027,2.845361 1.34629,2.632547 3.864565,4.453639 6.765291,4.892322 0.194213,0.02937 0.402599,0.05819 0.46308,0.06404 0.08793,0.0085 0.965109,0.0068 1.86403,-0.0035 z"
       id="path125" />
    <ellipse
       style="fill:#cccccc"
       id="path186"
       cx="24.522337"
       cy="23.766323"
       rx="9.5670099"
       ry="10.158075" />
  </g>
  <g
     inkscape:groupmode="layer"
     id="layer2"
     inkscape:label="Layer 2">
    <g
       aria-label="GCL"
       id="text9344"
       style="font-size:16px;line-height:1.25">
      <path
         d="m 19.154209,28.83975 q -0.632812,0.585938 -1.429687,0.890625 -0.789063,0.296875 -1.710938,0.296875 -2.21875,0 -3.453125,-1.585937 -1.234375,-1.59375 -1.234375,-4.460938 0,-2.859375 1.25,-4.453125 1.25,-1.601562 3.476563,-1.601562 0.734375,0 1.40625,0.210937 0.671875,0.203125 1.296875,0.625 v 1.617188 Q 18.122959,19.77725 17.458897,19.496 q -0.664063,-0.289062 -1.40625,-0.289062 -1.539063,0 -2.3125,1.195312 -0.765625,1.1875 -0.765625,3.578125 0,2.429688 0.742187,3.601563 0.75,1.164062 2.296875,1.164062 0.523438,0 0.914063,-0.117187 0.398437,-0.125 0.71875,-0.382813 v -3.132812 h -1.695313 v -1.296875 h 3.203125 z"
         style="font-family:'MesloLGS NF';-inkscape-font-specification:'MesloLGS NF'"
         id="path283" />
      <path
         d="m 28.544834,29.386625 q -0.601562,0.320313 -1.234375,0.476563 -0.632812,0.164062 -1.34375,0.164062 -2.242187,0 -3.484375,-1.585937 -1.234375,-1.585938 -1.234375,-4.460938 0,-2.859375 1.242188,-4.453125 1.25,-1.601562 3.476562,-1.601562 0.710938,0 1.34375,0.164062 0.632813,0.15625 1.234375,0.476563 V 20.1835 q -0.578125,-0.476562 -1.242187,-0.726562 -0.664063,-0.25 -1.335938,-0.25 -1.539062,0 -2.304687,1.1875 -0.765625,1.1875 -0.765625,3.585937 0,2.390625 0.765625,3.578125 0.765625,1.1875 2.304687,1.1875 0.6875,0 1.34375,-0.25 0.664063,-0.25 1.234375,-0.726562 z"
         style="font-family:'MesloLGS NF';-inkscape-font-specification:'MesloLGS NF'"
         id="path285" />
      <path
         d="m 31.474522,18.136625 h 1.585937 v 10.335938 h 5.632813 v 1.328125 h -7.21875 z"
         style="font-family:'MesloLGS NF';-inkscape-font-specification:'MesloLGS NF'"
         id="path287" />
    </g>
  </g>
</svg>
